<?xml version="1.0" encoding="UTF-8"?>
<svg width="35px" height="35px" viewBox="0 0 35 35" version="1.1" xmlns="http://www.w3.org/2000/svg" xmlns:xlink="http://www.w3.org/1999/xlink">
    <title>Combined Shape</title>
    <g id="Page-1" stroke="none" stroke-width="1" fill="none" fill-rule="evenodd">
        <path d="M13.5,0 C20.9558441,0 27,6.04415588 27,13.5 C27,16.5678818 25.9766617,19.39675 24.2527138,21.663876 L33.7522787,31.229827 C34.4429305,31.9253713 34.4428343,33.047921 33.7520633,33.743347 C33.0674106,34.4326135 31.953629,34.4363537 31.2643625,33.7517009 C31.2614972,33.7488548 31.2586417,33.7459988 31.255796,33.7431331 L21.7595382,24.1792974 C19.4765592,25.9475697 16.6111837,27 13.5,27 C6.04415588,27 0,20.9558441 0,13.5 C0,6.04415588 6.04415588,0 13.5,0 Z M13.5,3.6 C8.03238098,3.6 3.6,8.03238098 3.6,13.5 C3.6,18.967619 8.03238098,23.4 13.5,23.4 C18.967619,23.4 23.4,18.967619 23.4,13.5 C23.4,8.03238098 18.967619,3.6 13.5,3.6 Z" id="Combined-Shape" fill="#FFFFFF"></path>
    </g>
</svg>