<?xml version="1.0" encoding="UTF-8"?>
<svg width="18px" height="18px" viewBox="0 0 18 18" version="1.1" xmlns="http://www.w3.org/2000/svg" xmlns:xlink="http://www.w3.org/1999/xlink">
    <title>Group</title>
    <g id="Page-1" stroke="none" stroke-width="1" fill="none" fill-rule="evenodd">
        <g id="Group" fill="#10709C" fill-rule="nonzero">
            <polygon id="Combined-Shape" points="17.5 0.5 11 0.5 11 2.5 14.084 2.5 6.43934952 10.1464563 7.85356772 11.5606745 15.499 3.914 15.5000523 7 17.5 7"></polygon>
            <path d="M8,2 L8,4 L3,4 C2.48716416,4 2.06449284,4.38604019 2.00672773,4.88337887 L2,5 L2,15 C2,15.5522847 2.44771525,16 3,16 L3,16 L13,16 C13.5522847,16 14,15.5522847 14,15 L14,15 L14,10 L16,10 L16,15 C16,16.5976809 14.75108,17.9036609 13.1762728,17.9949073 L13,18 L3,18 C1.34314575,18 0,16.6568542 0,15 L0,15 L0,5 C0,3.34314575 1.34314575,2 3,2 L3,2 L8,2 Z" id="Combined-Shape"></path>
        </g>
    </g>
</svg>